Felony.Fights.4.dvdrip.xvid



Format                         : AVI
Format/Info                      : Audio Video Interleave
File size                        : 487 MiB
Duration                       : 51mn 4s
Overall bit rate               : 1 334 Kbps
Writing application              : VirtualDubMod 1.5.4.1 (build 2178/release)
Writing library                  : VirtualDubMod build 2178/release

Video
Format                         : MPEG-4 Visual
Format settings, BVOP            : Yes
Format settings, QPel            : No
Format settings, GMC           : No warppoints
Format settings, Matrix          : Default
Muxing mode                      : Packed bitstream
Codec ID                       : DX50
Codec ID/Hint                    : DivX 5
Duration                       : 51mn 4s
Bit rate                       : 1 204 Kbps
Width                            : 496 pixels
Height                         : 368 pixels
Display aspect ratio           : 4/3
Frame rate                     : 29.970 fps
Resolution                     : 24 bits
Colorimetry                      : 4:2:0
Scan type                        : Progressive
Bits/(Pixel*Frame)             : 0.220
Stream size                      : 440 MiB (90%)
Writing library                  : DivX 6.2.0 (UTC 2006-04-11)

Audio
Format                         : MPEG Audio
Format version                 : Version 1
Format profile                 : Layer 3
Codec ID                       : 55
Codec ID/Hint                    : MP3
Duration                       : 51mn 4s
Bit rate mode                    : Variable
Bit rate                       : 116 Kbps
Minimum bit rate               : 128 Kbps
Channel(s)                     : 2 channels
Sampling rate                    : 48.0 KHz
Resolution                     : 16 bits
Stream size                      : 42.4 MiB (9%)
Alignment                        : Aligned on interleaves
Interleave, duration           : 24 ms (0.72 video frame)
Interleave, preload duration   : 536 ms
Writing library                  : LAME3.97b
Encoding settings                : ABR



Category  Sports Highlights DVDs, Sports - Extreme Movies, Music Video
Videos, Education, Media Arts, Violence, Competitions, Gangs, Urban Violence
Standard Screen; Soundtrack English

Some of the most brutal hand to hand battles ever captured on video are
collected on FELONY FIGHTS. The fistfights and street brawls seen here are
between gangs, felony convicts, skinheads, thugs, and more. Each battle is real
and completely uncut, with no rules, making for some of the most vicious and
violent footage ever assembled. Also included are fights between felony women.
Needless to say, FELONY FIGHTS is for mature audiences.

ENJOY PLEASE SEED :)
